<svg width="84" height="24" viewBox="0 0 168 48" fill="none" xmlns="http://www.w3.org/2000/svg">
<g clip-path="url(#clip0_244_171)">
<path d="M7.938 42V7.488H35.346C36.658 7.488 37.842 7.808 38.898 8.448C39.986 9.088 40.85 9.952 41.49 11.04C42.162 12.128 42.498 13.312 42.498 14.592V23.52C42.498 24.8 42.162 25.984 41.49 27.072C40.85 28.16 39.986 29.024 38.898 29.664C37.842 30.304 36.658 30.624 35.346 30.624L15.378 30.672V42H7.938ZM15.378 23.136H34.962V14.928H15.378V23.136ZM52.9148 42C51.6348 42 50.4508 41.68 49.3628 41.04C48.2748 40.4 47.4108 39.536 46.7708 38.448C46.1308 37.36 45.8108 36.176 45.8108 34.896V14.544C45.8108 13.232 46.1308 12.048 46.7708 10.992C47.4108 9.904 48.2748 9.04 49.3628 8.4C50.4508 7.76 51.6348 7.44 52.9148 7.44H73.2668C74.5468 7.44 75.7148 7.76 76.7708 8.4C77.8588 9.04 78.7228 9.904 79.3628 10.992C80.0348 12.048 80.3708 13.232 80.3708 14.544V34.896C80.3708 36.176 80.0348 37.36 79.3628 38.448C78.7228 39.536 77.8588 40.4 76.7708 41.04C75.7148 41.68 74.5468 42 73.2668 42H52.9148ZM53.2508 34.512H72.8348V14.928H53.2508V34.512ZM85.6568 42V7.44H93.3368L112.681 30.48V7.44H120.217V42H112.537L93.0968 18.864V42H85.6568ZM132.698 42C131.418 42 130.234 41.68 129.146 41.04C128.058 40.4 127.194 39.536 126.554 38.448C125.914 37.36 125.594 36.176 125.594 34.896V14.544C125.594 13.232 125.914 12.048 126.554 10.992C127.194 9.904 128.058 9.04 129.146 8.4C130.234 7.76 131.418 7.44 132.698 7.44H153.002C154.314 7.44 155.498 7.76 156.554 8.4C157.642 9.04 158.506 9.904 159.146 10.992C159.818 12.048 160.154 13.232 160.154 14.544V17.808H152.618V14.928H133.034V34.512H152.618V29.328H145.13V21.84H160.154V34.896C160.154 36.176 159.818 37.36 159.146 38.448C158.506 39.536 157.642 40.4 156.554 41.04C155.498 41.68 154.314 42 153.002 42H132.698Z" fill="url(#paint0_linear_244_171)"/>
</g>
<defs>
<linearGradient id="paint0_linear_244_171" x1="0" y1="24" x2="168" y2="24" gradientUnits="userSpaceOnUse">
<stop stop-color="#B558F6"/>
<stop offset="1" stop-color="#0EA3D2"/>
</linearGradient>
<clipPath id="clip0_244_171">
<rect width="168" height="48" fill="white"/>
</clipPath>
</defs>
</svg>
